# xmcd
# 
# Track frame offsets:
#     150
#     20761
#     37029
#     52713
#     67237
#     81201
#     95467
#     109411
#     123749
#     137735
#     152643
#     166977
#     180578
#     195462
#     212417
#     224625
#     239118
#     253009
#     268792
#     283894
#     297354
#     312877
# 
# Disc length: 4336
# 
# Revision: 1
# Processed by: cddbd v1.5.2PL0 Copyright (c) Steve Scherf et al.
# Submitted via: BonkEnc v1.0.8
# 
DISCID=5b10ee16
DTITLE=Joan Sebastian - 22 kilates
DYEAR=2001
DGENRE=Country
TTITLE0=Secreto De Amor
TTITLE1=Tatuajes
TTITLE2=Juliantla
TTITLE3=Pirata
TTITLE4=El camino del amor
TTITLE5=El Perdedor
TTITLE6=Hasta Que Me Amanezca
TTITLE7=Bandolero
TTITLE8=Y las mariposas
TTITLE9=Me voy
TTITLE10=Melodia para dos
TTITLE11=25 rosas
TTITLE12=Contigo o sin ti
TTITLE13=Rumores
TTITLE14=Sembrador de amor
TTITLE15=Hay un tren a las cinco
TTITLE16=Alma de niña
TTITLE17=Oiga (Duo con prisma)
TTITLE18=Un idiota
TTITLE19=Amorcito Mio
TTITLE20=Julian
TTITLE21=Con besos
EXTD=
EXTT0=
EXTT1=
EXTT2=
EXTT3=
EXTT4=
EXTT5=
EXTT6=
EXTT7=
EXTT8=
EXTT9=
EXTT10=
EXTT11=
EXTT12=
EXTT13=
EXTT14=
EXTT15=
EXTT16=
EXTT17=
EXTT18=
EXTT19=
EXTT20=
EXTT21=
PLAYORDER=
